<mxfile host="app.diagrams.net" modified="2023-11-23T20:31:32.257Z" agent="Mozilla/5.0 (Windows NT 10.0; Win64; x64) AppleWebKit/537.36 (KHTML, like Gecko) Chrome/119.0.0.0 Safari/537.36" etag="f7JJ0icuDLKWXYmlo655" version="22.1.3" type="github">
  <diagram name="‫עמוד-1‬" id="3gj61zDsknXlUZYCjfBA">
    <mxGraphModel dx="562" dy="533" grid="1" gridSize="10" guides="1" tooltips="1" connect="1" arrows="1" fold="1" page="1" pageScale="1" pageWidth="827" pageHeight="1169" math="0" shadow="0">
      <root>
        <mxCell id="0" />
        <mxCell id="1" parent="0" />
        <mxCell id="stC3Iasyj1oSSeVy5H_L-3" value="" style="edgeStyle=orthogonalEdgeStyle;rounded=0;orthogonalLoop=1;jettySize=auto;html=1;" edge="1" parent="1" source="stC3Iasyj1oSSeVy5H_L-1" target="stC3Iasyj1oSSeVy5H_L-2">
          <mxGeometry relative="1" as="geometry" />
        </mxCell>
        <mxCell id="stC3Iasyj1oSSeVy5H_L-1" value="start" style="rounded=1;whiteSpace=wrap;html=1;" vertex="1" parent="1">
          <mxGeometry x="100" y="40" width="120" height="60" as="geometry" />
        </mxCell>
        <mxCell id="stC3Iasyj1oSSeVy5H_L-5" value="" style="edgeStyle=orthogonalEdgeStyle;rounded=0;orthogonalLoop=1;jettySize=auto;html=1;" edge="1" parent="1" source="stC3Iasyj1oSSeVy5H_L-2" target="stC3Iasyj1oSSeVy5H_L-4">
          <mxGeometry relative="1" as="geometry" />
        </mxCell>
        <mxCell id="stC3Iasyj1oSSeVy5H_L-2" value="num1&lt;br&gt;num2&lt;br&gt;num3" style="shape=card;whiteSpace=wrap;html=1;" vertex="1" parent="1">
          <mxGeometry x="90" y="130" width="140" height="80" as="geometry" />
        </mxCell>
        <mxCell id="stC3Iasyj1oSSeVy5H_L-7" value="" style="edgeStyle=orthogonalEdgeStyle;rounded=0;orthogonalLoop=1;jettySize=auto;html=1;" edge="1" parent="1" source="stC3Iasyj1oSSeVy5H_L-4" target="stC3Iasyj1oSSeVy5H_L-6">
          <mxGeometry relative="1" as="geometry" />
        </mxCell>
        <mxCell id="stC3Iasyj1oSSeVy5H_L-4" value="num1 &amp;lt; 0&lt;br&gt;num &amp;lt; 2&lt;br&gt;num3 &amp;lt; 0" style="ellipse;whiteSpace=wrap;html=1;" vertex="1" parent="1">
          <mxGeometry x="120" y="260" width="80" height="80" as="geometry" />
        </mxCell>
        <mxCell id="stC3Iasyj1oSSeVy5H_L-9" value="" style="edgeStyle=orthogonalEdgeStyle;rounded=0;orthogonalLoop=1;jettySize=auto;html=1;" edge="1" parent="1" source="stC3Iasyj1oSSeVy5H_L-6" target="stC3Iasyj1oSSeVy5H_L-8">
          <mxGeometry relative="1" as="geometry" />
        </mxCell>
        <mxCell id="stC3Iasyj1oSSeVy5H_L-6" value="num1&lt;br style=&quot;border-color: var(--border-color);&quot;&gt;num2&lt;br style=&quot;border-color: var(--border-color);&quot;&gt;num3" style="shape=card;whiteSpace=wrap;html=1;" vertex="1" parent="1">
          <mxGeometry x="95" y="370" width="130" height="100" as="geometry" />
        </mxCell>
        <mxCell id="stC3Iasyj1oSSeVy5H_L-22" value="" style="edgeStyle=orthogonalEdgeStyle;rounded=0;orthogonalLoop=1;jettySize=auto;html=1;" edge="1" parent="1" source="stC3Iasyj1oSSeVy5H_L-8" target="stC3Iasyj1oSSeVy5H_L-20">
          <mxGeometry relative="1" as="geometry" />
        </mxCell>
        <mxCell id="stC3Iasyj1oSSeVy5H_L-8" value="(num1 + num2 + num3) / 3" style="shape=document;whiteSpace=wrap;html=1;boundedLbl=1;" vertex="1" parent="1">
          <mxGeometry x="95" y="490" width="120" height="80" as="geometry" />
        </mxCell>
        <mxCell id="stC3Iasyj1oSSeVy5H_L-15" value="" style="edgeStyle=orthogonalEdgeStyle;rounded=0;orthogonalLoop=1;jettySize=auto;html=1;" edge="1" parent="1" source="stC3Iasyj1oSSeVy5H_L-13" target="stC3Iasyj1oSSeVy5H_L-14">
          <mxGeometry relative="1" as="geometry" />
        </mxCell>
        <mxCell id="stC3Iasyj1oSSeVy5H_L-13" value="count &amp;lt; max" style="ellipse;whiteSpace=wrap;html=1;aspect=fixed;" vertex="1" parent="1">
          <mxGeometry x="120" y="720" width="80" height="80" as="geometry" />
        </mxCell>
        <mxCell id="stC3Iasyj1oSSeVy5H_L-17" value="" style="edgeStyle=orthogonalEdgeStyle;rounded=0;orthogonalLoop=1;jettySize=auto;html=1;" edge="1" parent="1" source="stC3Iasyj1oSSeVy5H_L-14" target="stC3Iasyj1oSSeVy5H_L-16">
          <mxGeometry relative="1" as="geometry" />
        </mxCell>
        <mxCell id="stC3Iasyj1oSSeVy5H_L-14" value="hello" style="shape=document;whiteSpace=wrap;html=1;boundedLbl=1;" vertex="1" parent="1">
          <mxGeometry x="100" y="880" width="120" height="80" as="geometry" />
        </mxCell>
        <mxCell id="stC3Iasyj1oSSeVy5H_L-25" value="" style="edgeStyle=orthogonalEdgeStyle;rounded=0;orthogonalLoop=1;jettySize=auto;html=1;" edge="1" parent="1" source="stC3Iasyj1oSSeVy5H_L-16" target="stC3Iasyj1oSSeVy5H_L-24">
          <mxGeometry relative="1" as="geometry" />
        </mxCell>
        <mxCell id="stC3Iasyj1oSSeVy5H_L-16" value="count ++" style="rounded=1;whiteSpace=wrap;html=1;" vertex="1" parent="1">
          <mxGeometry x="100" y="1050" width="120" height="60" as="geometry" />
        </mxCell>
        <mxCell id="stC3Iasyj1oSSeVy5H_L-23" value="" style="edgeStyle=orthogonalEdgeStyle;rounded=0;orthogonalLoop=1;jettySize=auto;html=1;" edge="1" parent="1" source="stC3Iasyj1oSSeVy5H_L-20" target="stC3Iasyj1oSSeVy5H_L-13">
          <mxGeometry relative="1" as="geometry" />
        </mxCell>
        <mxCell id="stC3Iasyj1oSSeVy5H_L-20" value="Math.max(num1, num2, num3)" style="rounded=1;whiteSpace=wrap;html=1;" vertex="1" parent="1">
          <mxGeometry x="105" y="610" width="120" height="60" as="geometry" />
        </mxCell>
        <mxCell id="stC3Iasyj1oSSeVy5H_L-24" value="stop" style="rounded=1;whiteSpace=wrap;html=1;" vertex="1" parent="1">
          <mxGeometry x="100" y="1190" width="120" height="60" as="geometry" />
        </mxCell>
        <mxCell id="stC3Iasyj1oSSeVy5H_L-29" value="" style="edgeStyle=orthogonalEdgeStyle;rounded=0;orthogonalLoop=1;jettySize=auto;html=1;" edge="1" parent="1" source="stC3Iasyj1oSSeVy5H_L-26" target="stC3Iasyj1oSSeVy5H_L-28">
          <mxGeometry relative="1" as="geometry" />
        </mxCell>
        <mxCell id="stC3Iasyj1oSSeVy5H_L-26" value="start" style="rounded=1;whiteSpace=wrap;html=1;" vertex="1" parent="1">
          <mxGeometry x="100" y="1330" width="80" height="20" as="geometry" />
        </mxCell>
        <mxCell id="stC3Iasyj1oSSeVy5H_L-31" value="" style="edgeStyle=orthogonalEdgeStyle;rounded=0;orthogonalLoop=1;jettySize=auto;html=1;" edge="1" parent="1" source="stC3Iasyj1oSSeVy5H_L-28" target="stC3Iasyj1oSSeVy5H_L-30">
          <mxGeometry relative="1" as="geometry" />
        </mxCell>
        <mxCell id="stC3Iasyj1oSSeVy5H_L-28" value="maxNum" style="shape=card;whiteSpace=wrap;html=1;" vertex="1" parent="1">
          <mxGeometry x="85" y="1390" width="110" height="60" as="geometry" />
        </mxCell>
        <mxCell id="stC3Iasyj1oSSeVy5H_L-40" value="" style="edgeStyle=orthogonalEdgeStyle;rounded=0;orthogonalLoop=1;jettySize=auto;html=1;" edge="1" parent="1" source="stC3Iasyj1oSSeVy5H_L-30" target="stC3Iasyj1oSSeVy5H_L-39">
          <mxGeometry relative="1" as="geometry" />
        </mxCell>
        <mxCell id="stC3Iasyj1oSSeVy5H_L-30" value="" style="shape=orEllipse;perimeter=ellipsePerimeter;whiteSpace=wrap;html=1;backgroundOutline=1;" vertex="1" parent="1">
          <mxGeometry x="75" y="1500" width="130" height="120" as="geometry" />
        </mxCell>
        <mxCell id="stC3Iasyj1oSSeVy5H_L-32" value="i=0" style="text;html=1;strokeColor=none;fillColor=none;align=center;verticalAlign=middle;whiteSpace=wrap;rounded=0;" vertex="1" parent="1">
          <mxGeometry x="90" y="1520" width="60" height="30" as="geometry" />
        </mxCell>
        <mxCell id="stC3Iasyj1oSSeVy5H_L-33" value="mxNum &amp;lt; i" style="text;html=1;strokeColor=none;fillColor=none;align=center;verticalAlign=middle;whiteSpace=wrap;rounded=0;" vertex="1" parent="1">
          <mxGeometry x="142.5" y="1530" width="45" height="20" as="geometry" />
        </mxCell>
        <mxCell id="stC3Iasyj1oSSeVy5H_L-36" value="i ++" style="text;html=1;strokeColor=none;fillColor=none;align=center;verticalAlign=middle;whiteSpace=wrap;rounded=0;" vertex="1" parent="1">
          <mxGeometry x="85" y="1560" width="60" height="30" as="geometry" />
        </mxCell>
        <mxCell id="stC3Iasyj1oSSeVy5H_L-39" value="hello" style="shape=document;whiteSpace=wrap;html=1;boundedLbl=1;" vertex="1" parent="1">
          <mxGeometry x="80" y="1670" width="120" height="80" as="geometry" />
        </mxCell>
        <mxCell id="stC3Iasyj1oSSeVy5H_L-43" value="" style="edgeStyle=orthogonalEdgeStyle;rounded=0;orthogonalLoop=1;jettySize=auto;html=1;" edge="1" parent="1" source="stC3Iasyj1oSSeVy5H_L-41" target="stC3Iasyj1oSSeVy5H_L-42">
          <mxGeometry relative="1" as="geometry" />
        </mxCell>
        <mxCell id="stC3Iasyj1oSSeVy5H_L-41" value="start" style="rounded=1;whiteSpace=wrap;html=1;" vertex="1" parent="1">
          <mxGeometry x="330" y="1330" width="100" height="20" as="geometry" />
        </mxCell>
        <mxCell id="stC3Iasyj1oSSeVy5H_L-42" value="num1" style="shape=card;whiteSpace=wrap;html=1;" vertex="1" parent="1">
          <mxGeometry x="325" y="1400" width="110" height="60" as="geometry" />
        </mxCell>
        <mxCell id="stC3Iasyj1oSSeVy5H_L-47" value="" style="edgeStyle=orthogonalEdgeStyle;rounded=0;orthogonalLoop=1;jettySize=auto;html=1;" edge="1" parent="1" source="stC3Iasyj1oSSeVy5H_L-42">
          <mxGeometry relative="1" as="geometry">
            <mxPoint x="380" y="1550" as="sourcePoint" />
            <mxPoint x="380" y="1600" as="targetPoint" />
          </mxGeometry>
        </mxCell>
        <mxCell id="stC3Iasyj1oSSeVy5H_L-53" value="" style="edgeStyle=orthogonalEdgeStyle;rounded=0;orthogonalLoop=1;jettySize=auto;html=1;" edge="1" parent="1" source="stC3Iasyj1oSSeVy5H_L-48" target="stC3Iasyj1oSSeVy5H_L-52">
          <mxGeometry relative="1" as="geometry" />
        </mxCell>
        <mxCell id="stC3Iasyj1oSSeVy5H_L-48" value="" style="shape=orEllipse;perimeter=ellipsePerimeter;whiteSpace=wrap;html=1;backgroundOutline=1;" vertex="1" parent="1">
          <mxGeometry x="314" y="1600" width="130" height="120" as="geometry" />
        </mxCell>
        <mxCell id="stC3Iasyj1oSSeVy5H_L-49" value="i=0" style="text;html=1;strokeColor=none;fillColor=none;align=center;verticalAlign=middle;whiteSpace=wrap;rounded=0;" vertex="1" parent="1">
          <mxGeometry x="320" y="1620" width="60" height="30" as="geometry" />
        </mxCell>
        <mxCell id="stC3Iasyj1oSSeVy5H_L-50" value="i &amp;lt;num1" style="text;html=1;strokeColor=none;fillColor=none;align=center;verticalAlign=middle;whiteSpace=wrap;rounded=0;" vertex="1" parent="1">
          <mxGeometry x="384" y="1620" width="60" height="30" as="geometry" />
        </mxCell>
        <mxCell id="stC3Iasyj1oSSeVy5H_L-51" value="i++" style="text;html=1;strokeColor=none;fillColor=none;align=center;verticalAlign=middle;whiteSpace=wrap;rounded=0;" vertex="1" parent="1">
          <mxGeometry x="325" y="1670" width="60" height="30" as="geometry" />
        </mxCell>
        <mxCell id="stC3Iasyj1oSSeVy5H_L-55" value="" style="edgeStyle=orthogonalEdgeStyle;rounded=0;orthogonalLoop=1;jettySize=auto;html=1;" edge="1" parent="1" source="stC3Iasyj1oSSeVy5H_L-52" target="stC3Iasyj1oSSeVy5H_L-54">
          <mxGeometry relative="1" as="geometry" />
        </mxCell>
        <mxCell id="stC3Iasyj1oSSeVy5H_L-52" value="hello" style="shape=document;whiteSpace=wrap;html=1;boundedLbl=1;" vertex="1" parent="1">
          <mxGeometry x="325" y="1760" width="120" height="80" as="geometry" />
        </mxCell>
        <mxCell id="stC3Iasyj1oSSeVy5H_L-60" value="" style="edgeStyle=orthogonalEdgeStyle;rounded=0;orthogonalLoop=1;jettySize=auto;html=1;" edge="1" parent="1" source="stC3Iasyj1oSSeVy5H_L-54" target="stC3Iasyj1oSSeVy5H_L-59">
          <mxGeometry relative="1" as="geometry" />
        </mxCell>
        <mxCell id="stC3Iasyj1oSSeVy5H_L-54" value="" style="shape=orEllipse;perimeter=ellipsePerimeter;whiteSpace=wrap;html=1;backgroundOutline=1;" vertex="1" parent="1">
          <mxGeometry x="320" y="1870" width="130" height="120" as="geometry" />
        </mxCell>
        <mxCell id="stC3Iasyj1oSSeVy5H_L-56" value="t&amp;lt;num1*2" style="text;html=1;strokeColor=none;fillColor=none;align=center;verticalAlign=middle;whiteSpace=wrap;rounded=0;" vertex="1" parent="1">
          <mxGeometry x="385" y="1900" width="60" height="30" as="geometry" />
        </mxCell>
        <mxCell id="stC3Iasyj1oSSeVy5H_L-57" value="t=0" style="text;html=1;strokeColor=none;fillColor=none;align=center;verticalAlign=middle;whiteSpace=wrap;rounded=0;" vertex="1" parent="1">
          <mxGeometry x="324" y="1890" width="60" height="30" as="geometry" />
        </mxCell>
        <mxCell id="stC3Iasyj1oSSeVy5H_L-58" value="t++" style="text;html=1;strokeColor=none;fillColor=none;align=center;verticalAlign=middle;whiteSpace=wrap;rounded=0;" vertex="1" parent="1">
          <mxGeometry x="325" y="1940" width="60" height="30" as="geometry" />
        </mxCell>
        <mxCell id="stC3Iasyj1oSSeVy5H_L-62" value="" style="edgeStyle=orthogonalEdgeStyle;rounded=0;orthogonalLoop=1;jettySize=auto;html=1;" edge="1" parent="1" source="stC3Iasyj1oSSeVy5H_L-59" target="stC3Iasyj1oSSeVy5H_L-61">
          <mxGeometry relative="1" as="geometry" />
        </mxCell>
        <mxCell id="stC3Iasyj1oSSeVy5H_L-59" value="hello" style="shape=document;whiteSpace=wrap;html=1;boundedLbl=1;" vertex="1" parent="1">
          <mxGeometry x="325" y="2030" width="120" height="80" as="geometry" />
        </mxCell>
        <mxCell id="stC3Iasyj1oSSeVy5H_L-61" value="stop" style="rounded=1;whiteSpace=wrap;html=1;" vertex="1" parent="1">
          <mxGeometry x="325" y="2180" width="120" height="60" as="geometry" />
        </mxCell>
      </root>
    </mxGraphModel>
  </diagram>
</mxfile>
